<svg aria-hidden="true" style="position: absolute; width: 0; height: 0; overflow: hidden;" version="1.1" xmlns="http://www.w3.org/2000/svg" xmlns:xlink="http://www.w3.org/1999/xlink">
<defs>
<symbol id="icon-smartphone" viewBox="0 0 32 32">
<path d="M25.956 8.25h-3.389v-6.088c0-1.19-0.972-2.162-2.161-2.162h-14.267c-1.19 0-2.161 0.972-2.161 2.162v27.677c0 1.189 0.972 2.162 2.161 2.162h14.267c1.188 0 2.161-0.972 2.161-2.162v-6.95h3.389c1.14 0 2.067-0.921 2.067-2.053v-10.534c0-1.131-0.927-2.053-2.067-2.053zM10.989 1.558h4.564c0.144 0 0.262 0.117 0.262 0.261 0 0.143-0.118 0.261-0.262 0.261h-4.564c-0.144 0-0.261-0.118-0.261-0.261 0-0.144 0.117-0.261 0.261-0.261zM13.272 30.921c-0.596 0-1.081-0.484-1.081-1.082 0-0.597 0.484-1.081 1.081-1.081s1.082 0.484 1.082 1.081c-0 0.598-0.485 1.082-1.082 1.082zM21.062 28.001h-15.581v-24.573h15.581v4.822h-8.907c-1.139 0-2.065 0.922-2.065 2.054v10.534c0 1.132 0.927 2.053 2.065 2.053h1.248v3.529l3.529-3.529h4.13v5.111zM27.108 20.837c0 0.628-0.516 1.138-1.152 1.138h-9.401l-2.236 2.236v-2.236h-2.163c-0.634 0-1.151-0.511-1.151-1.138v-10.534c0-0.628 0.516-1.139 1.151-1.139h13.801c0.634 0 1.152 0.511 1.152 1.139v10.534zM24.822 12.428c0 0.313-0.237 0.565-0.53 0.565h-10.446c-0.292 0-0.53-0.252-0.53-0.565 0-0.311 0.238-0.565 0.53-0.565h10.446c0.292 0 0.53 0.254 0.53 0.565zM24.822 15.493c0 0.313-0.237 0.566-0.53 0.566h-10.446c-0.292 0-0.53-0.253-0.53-0.566 0-0.31 0.238-0.564 0.53-0.564h10.446c0.292-0 0.53 0.253 0.53 0.564zM24.822 18.558c0 0.312-0.237 0.566-0.53 0.566h-10.446c-0.292 0-0.53-0.254-0.53-0.566s0.238-0.564 0.53-0.564h10.446c0.292-0 0.53 0.253 0.53 0.564z"></path>
</symbol>
</defs>
</svg>
